<svg width="28" height="28" viewBox="0 0 28 28" fill="none" xmlns="http://www.w3.org/2000/svg">
<path fill-rule="evenodd" clip-rule="evenodd" d="M7.58229 5.44305L13.9989 11.86L20.4177 5.44305C21.0084 4.85232 21.9662 4.85232 22.5569 5.44305C23.1477 6.03378 23.1477 6.99155 22.5569 7.58229L16.1393 13.9989L22.5569 20.4177C23.1477 21.0084 23.1477 21.9662 22.5569 22.5569C21.9662 23.1477 21.0084 23.1477 20.4177 22.5569L13.9989 16.1393L7.58229 22.5569C6.99155 23.1477 6.03378 23.1477 5.44305 22.5569C4.85232 21.9662 4.85232 21.0084 5.44305 20.4177L11.86 13.9989L5.44305 7.58229C4.85232 6.99155 4.85232 6.03378 5.44305 5.44305C6.03378 4.85232 6.99155 4.85232 7.58229 5.44305Z" fill="#222222"/>
</svg>
