<svg width="28" height="28" viewBox="0 0 28 28" fill="none" xmlns="http://www.w3.org/2000/svg">
<path fill-rule="evenodd" clip-rule="evenodd" d="M9.53068 3.57561C8.74699 3.01584 8.35515 2.73595 7.93551 2.65152C7.5656 2.57709 7.18218 2.60882 6.82953 2.74305C6.42948 2.89533 6.08898 3.23582 5.40799 3.91681L3.9169 5.40789C3.23589 6.08889 2.89539 6.42938 2.74312 6.82944C2.60888 7.18209 2.57715 7.56551 2.65158 7.93543C2.73602 8.35508 3.01591 8.74692 3.57569 9.53061L4.34701 10.6105C4.64503 11.0277 4.79404 11.2363 4.87814 11.4297C4.97017 11.6414 4.99723 11.7392 5.02712 11.9681C5.05444 12.1773 5.0253 12.5394 4.96703 13.2638C4.94749 13.5066 4.93754 13.752 4.93754 13.9996C4.93754 14.2474 4.9475 14.493 4.96706 14.7359C5.02537 15.4603 5.05453 15.8225 5.02721 16.0317C4.99732 16.2606 4.97026 16.3584 4.87823 16.5701C4.79412 16.7635 4.64511 16.9722 4.34707 17.3894L3.57564 18.4694C3.01586 19.2531 2.73597 19.6449 2.65154 20.0646C2.57711 20.4345 2.60884 20.8179 2.74307 21.1706C2.89535 21.5706 3.23585 21.9111 3.91685 22.5921L5.40794 24.0832C6.08894 24.7642 6.42943 25.1047 6.82949 25.2569C7.18213 25.3912 7.56555 25.4229 7.93546 25.3485C8.35511 25.264 8.74695 24.9842 9.53063 24.4244L10.6111 23.6526C11.0283 23.3546 11.2369 23.2056 11.4304 23.1215C11.6421 23.0295 11.7398 23.0024 11.9687 22.9725C12.1779 22.9452 12.54 22.9743 13.2643 23.0326C13.5071 23.0521 13.7524 23.0621 14 23.0621C14.2477 23.0621 14.4931 23.0521 14.7359 23.0326C15.4602 22.9743 15.8224 22.9452 16.0315 22.9725C16.2604 23.0024 16.3582 23.0295 16.5699 23.1215C16.7633 23.2056 16.9719 23.3546 17.3892 23.6526L18.4694 24.4242C19.2531 24.9839 19.6449 25.2638 20.0645 25.3483C20.4344 25.4227 20.8179 25.391 21.1705 25.2567C21.5706 25.1044 21.9111 24.764 22.5921 24.083L24.0831 22.5919C24.7642 21.9109 25.1047 21.5704 25.2569 21.1703C25.3912 20.8177 25.4229 20.4343 25.3485 20.0643C25.264 19.6447 24.9841 19.2529 24.4244 18.4692L23.653 17.3893C23.355 16.9721 23.206 16.7634 23.1219 16.57C23.0298 16.3583 23.0028 16.2605 22.9729 16.0316C22.9456 15.8224 22.9747 15.4602 23.033 14.7358C23.0526 14.4929 23.0625 14.2474 23.0625 13.9996C23.0625 13.752 23.0526 13.5066 23.0331 13.2638C22.9748 12.5395 22.9457 12.1773 22.973 11.9682C23.0029 11.7393 23.0299 11.6415 23.122 11.4298C23.2061 11.2364 23.3551 11.0278 23.6531 10.6106L24.4243 9.53084C24.9841 8.74715 25.264 8.35531 25.3484 7.93566C25.4229 7.56574 25.3911 7.18232 25.2569 6.82967C25.1046 6.42961 24.7641 6.08911 24.0831 5.40812L22.592 3.91704C21.911 3.23605 21.5705 2.89555 21.1705 2.74328C20.8178 2.60905 20.4344 2.57732 20.0645 2.65175C19.6448 2.73618 19.253 3.01606 18.4693 3.57583L17.39 4.34679C16.9727 4.64482 16.7641 4.79384 16.5706 4.87794C16.3589 4.96998 16.2611 4.99703 16.0322 5.02692C15.8231 5.05424 15.4609 5.02507 14.7365 4.96675C14.4935 4.94719 14.2479 4.93722 14 4.93722C13.7523 4.93722 13.5067 4.94718 13.2638 4.96674C12.5394 5.02505 12.1772 5.0542 11.968 5.02689C11.7391 4.997 11.6413 4.96994 11.4296 4.87791C11.2362 4.79381 11.0275 4.64479 10.6103 4.34676L9.53068 3.57561Z" fill="#B4B4B4"/>
<path fill-rule="evenodd" clip-rule="evenodd" d="M18.1431 13.9993C18.1431 16.2873 16.2883 18.1421 14.0003 18.1421C11.7122 18.1421 9.85742 16.2873 9.85742 13.9993C9.85742 11.7113 11.7122 9.85645 14.0003 9.85645C16.2883 9.85645 18.1431 11.7113 18.1431 13.9993Z" fill="#222222"/>
</svg>
