<svg width="18" height="18" viewBox="0 0 18 18" fill="none" xmlns="http://www.w3.org/2000/svg">
<path d="M17 7.99813C16.7554 6.23505 15.9391 4.60144 14.6766 3.34894C13.4142 2.09644 11.7758 1.29453 10.0137 1.06674C8.25159 0.838944 6.46362 1.19791 4.9252 2.08834C3.38678 2.97876 2.18325 4.35125 1.5 5.99439M1 1.9869V5.99439H5M1 10.0019C1.24456 11.7649 2.06093 13.3986 3.32336 14.6511C4.58579 15.9036 6.22424 16.7055 7.98633 16.9333C9.74841 17.1611 11.5364 16.8021 13.0748 15.9117C14.6132 15.0212 15.8168 13.6487 16.5 12.0056M17 16.0131V12.0056H13" stroke="#222222" stroke-width="2" stroke-linecap="round" stroke-linejoin="round"/>
</svg>
