<svg width="28" height="28" viewBox="0 0 28 28" fill="none" xmlns="http://www.w3.org/2000/svg">
<path fill-rule="evenodd" clip-rule="evenodd" d="M9.92016 3C7.23921 3 5.06587 5.1761 5.06587 7.86047C5.06587 10.5448 7.23921 12.7209 9.92016 12.7209C12.6011 12.7209 14.7744 10.5448 14.7744 7.86047C14.7744 5.1761 12.6011 3 9.92016 3ZM2 21.1116C2 17.8904 4.61132 15.2791 7.83256 15.2791H12.0078C15.229 15.2791 17.8403 17.8904 17.8403 21.1116C17.8403 23.2591 16.0994 25 13.9519 25H5.88837C3.74089 25 2 23.2591 2 21.1116ZM17.0739 3.01744C16.6596 3.01744 16.3239 3.35323 16.3239 3.76744C16.3239 4.18165 16.6596 4.51744 17.0739 4.51744C18.9164 4.51744 20.4117 6.01326 20.4117 7.86046C20.4117 9.70766 18.9164 11.2035 17.0739 11.2035C16.6596 11.2035 16.3239 11.5393 16.3239 11.9535C16.3239 12.3677 16.6596 12.7035 17.0739 12.7035C19.7466 12.7035 21.9117 10.5343 21.9117 7.86046C21.9117 5.18664 19.7466 3.01744 17.0739 3.01744ZM19.1178 15.2965C18.7036 15.2965 18.3678 15.6323 18.3678 16.0465C18.3678 16.4607 18.7036 16.7965 19.1178 16.7965H20.3379C22.6363 16.7965 24.4995 18.6597 24.4995 20.9581C24.4995 22.3523 23.3693 23.4826 21.9751 23.4826H19.1178C18.7036 23.4826 18.3678 23.8183 18.3678 24.2326C18.3678 24.6468 18.7036 24.9826 19.1178 24.9826H21.9751C24.1977 24.9826 25.9995 23.1808 25.9995 20.9581C25.9995 17.8313 23.4647 15.2965 20.3379 15.2965H19.1178Z" fill="#222222"/>
<ellipse cx="10.0053" cy="8" rx="5.00332" ry="5" fill="#B4B4B4"/>
</svg>
