<svg width="28" height="28" viewBox="0 0 28 28" fill="none" xmlns="http://www.w3.org/2000/svg">
<path d="M8.41861 3.00076C4.65315 3.00076 2 5.9883 2 10.2133C2 11.2823 2.17794 12.3015 2.50021 13.27L6.33513 10.0847C6.78789 9.70858 7.47013 9.74196 7.88047 10.1603L13.2763 15.6608C13.363 15.7491 13.509 15.7509 13.598 15.6646L17.2205 12.1493C17.6553 11.7274 18.3657 11.7248 18.8038 12.1434L20.9114 14.1573C20.9532 14.1973 21.01 14.2198 21.0691 14.2198H25.1315C25.684 12.9741 26 11.638 26 10.2133C26 5.97895 23.3387 3.05272 19.5935 3.00085C16.7348 2.96126 15.3684 4.3155 14.1463 5.5267C14.0973 5.57522 14.0486 5.62351 14 5.67147C13.8399 5.51487 13.6859 5.35534 13.5323 5.1961C12.4661 4.09138 11.4136 3.00076 8.41861 3.00076Z" fill="#B4B4B4"/>
<path d="M2.72168 14.9407L6.98493 11.6719C7.07586 11.6022 7.20751 11.6111 7.28726 11.6924L13.2765 17.7979C13.3632 17.8862 13.5092 17.888 13.5982 17.8017L17.8594 13.6666C17.9433 13.5852 18.0791 13.5814 18.1678 13.6579L20.2326 15.4389C20.2736 15.4743 20.3269 15.4938 20.3821 15.4938H25.0381C23.0375 19.7685 18.2603 22.9611 14.0002 25C9.55833 22.8741 4.55424 19.494 2.72168 14.9407Z" fill="#222222"/>
</svg>
