<svg width="22" height="22" viewBox="0 0 22 22" fill="none" xmlns="http://www.w3.org/2000/svg">
<path d="M9.83454 8.66669H12.1679V14.5H9.83454V8.66669ZM9.83337 15.6667H12.1667V18H9.83337V15.6667Z" fill="#EB3E56"/>
<path d="M13.0626 1.90001C12.6566 1.13584 11.8656 0.661011 11 0.661011C10.1343 0.661011 9.34332 1.13584 8.93732 1.90118L0.376314 18.0747C0.186344 18.4298 0.0922411 18.8284 0.103289 19.231C0.114337 19.6337 0.230153 20.0265 0.439314 20.3707C0.645463 20.7165 0.938228 21.0025 1.2887 21.2005C1.63918 21.3986 2.03525 21.5018 2.43781 21.5H19.5621C20.3881 21.5 21.136 21.0777 21.5618 20.3707C21.7706 20.0263 21.8863 19.6336 21.8973 19.231C21.9084 18.8285 21.8144 18.4299 21.6248 18.0747L13.0626 1.90001ZM2.43781 19.1667L11 2.99318L19.568 19.1667H2.43781Z" fill="#EB3E56"/>
</svg>
