<svg width="168" height="60" viewBox="0 0 168 60" fill="none" xmlns="http://www.w3.org/2000/svg">
<path d="M154.648 23.3181C154.587 23.2298 154.627 23.1009 154.737 23.0737C155.562 22.8361 156.244 22.4084 156.763 21.7906C157.397 21.037 157.725 20.0798 157.725 18.9529C157.725 18.0839 157.527 17.3235 157.145 16.6718C156.756 16.0201 156.21 15.5109 155.514 15.1511C154.825 14.7981 154.007 14.6148 153.093 14.6148H149.948C149.907 14.6148 149.866 14.6283 149.832 14.6623L148.01 16.4749C148.01 16.4749 147.963 16.5428 147.963 16.5903V28.0839C147.963 28.1721 148.031 28.24 148.12 28.24H149.429C149.518 28.24 149.586 28.1721 149.586 28.0839V23.4675C149.586 23.3792 149.654 23.3113 149.743 23.3113H152.554C152.608 23.3113 152.656 23.3385 152.683 23.3792L156.135 28.1857C156.162 28.2264 156.21 28.2536 156.265 28.2536H157.841C157.97 28.2536 158.045 28.111 157.97 28.0024L154.641 23.3317L154.648 23.3181ZM149.593 16.3527C149.593 16.2645 149.661 16.1966 149.75 16.1966H152.97C153.945 16.1966 154.716 16.4478 155.262 16.9434C155.808 17.4389 156.074 18.0975 156.074 18.9664C156.074 19.8354 155.808 20.5075 155.262 21.0099C154.716 21.5055 153.945 21.7567 152.97 21.7567H149.75C149.661 21.7567 149.593 21.6888 149.593 21.6005V16.3527Z" fill="#0C0066"/>
<path d="M67.9165 14.7867V16.0359C67.9165 16.1241 67.8482 16.192 67.7596 16.192H63.5164C63.4277 16.192 63.3595 16.2599 63.3595 16.3482V28.0861C63.3595 28.1744 63.2913 28.2423 63.2026 28.2423H61.9133C61.8246 28.2423 61.7564 28.1744 61.7564 28.0861V16.3482C61.7564 16.2599 61.6882 16.192 61.5995 16.192H57.37C57.2814 16.192 57.2131 16.1241 57.2131 16.0359V14.7867C57.2131 14.6985 57.2814 14.6306 57.37 14.6306H67.7732C67.8619 14.6306 67.9301 14.6985 67.9301 14.7867H67.9165Z" fill="#0C0066"/>
<path d="M81.6142 17.7803C81.0207 16.7144 80.1816 15.8726 79.1175 15.2752C78.0533 14.6846 76.8253 14.3791 75.4542 14.3791C74.083 14.3791 72.8755 14.6778 71.8114 15.2752C70.7472 15.8726 69.9013 16.7144 69.3078 17.7803C68.7143 18.8462 68.4073 20.0749 68.4073 21.4395C68.4073 22.8041 68.7075 24.0328 69.3078 25.0919C69.9081 26.1578 70.7472 26.9996 71.8114 27.597C72.8755 28.1876 74.0966 28.4931 75.4542 28.4931C76.8117 28.4931 78.0533 28.1944 79.1175 27.597C80.1816 26.9996 81.0207 26.1578 81.6142 25.0919C82.2009 24.0261 82.501 22.7973 82.501 21.4395C82.501 20.0817 82.2009 18.8462 81.6142 17.7871V17.7803ZM75.4542 26.8638C74.3968 26.8638 73.4486 26.633 72.6368 26.1781C72.2343 25.9541 71.8727 25.6825 71.5589 25.3567C71.2451 25.0376 70.9723 24.671 70.7403 24.2637C70.2833 23.4422 70.0513 22.485 70.0513 21.4327C70.0513 20.3804 70.2833 19.4096 70.7403 18.595C71.1906 17.7803 71.8318 17.1354 72.6368 16.6873C73.4486 16.2324 74.39 16.0016 75.4542 16.0016C76.5184 16.0016 77.4666 16.2324 78.2784 16.6873C79.0902 17.1354 79.7314 17.7803 80.1816 18.595C80.6387 19.4096 80.8706 20.3669 80.8706 21.4327C80.8706 22.4986 80.6387 23.4558 80.1816 24.2705C79.7314 25.0851 79.0833 25.7233 78.2784 26.1781C77.4598 26.633 76.5115 26.8638 75.4542 26.8638Z" fill="#0C0066"/>
<path d="M98.2521 21.094C98.3612 25.1605 95.537 28.5481 91.3553 28.487C90.0387 28.487 88.8381 28.1815 87.7943 27.5841C84.438 25.7308 83.558 21.0397 85.3181 17.8014C87.7534 13.1985 95.0049 13.28 97.4062 17.815C97.4403 17.8761 97.4267 17.9507 97.3789 18.005L96.3897 18.9894C96.3079 19.0709 96.1783 19.0437 96.1305 18.9419C95.7349 18.0458 95.1277 17.3126 94.3159 16.8034C92.7742 15.7783 90.2229 15.7443 88.6198 16.688C86.0412 18.0729 85.4408 21.8204 86.7574 24.2712C87.6784 25.982 89.4043 26.8781 91.3758 26.8645C93.9953 26.912 96.1373 25.1469 96.5057 22.6011C96.5194 22.5061 96.4443 22.4246 96.3488 22.4246H90.8641C90.7755 22.4246 90.7072 22.3567 90.7072 22.2684V21.0193C90.7072 20.931 90.7755 20.8632 90.8641 20.8632H98.0952C98.1839 20.8632 98.2521 20.931 98.2521 21.0193V21.1008V21.094Z" fill="#0C0066"/>
<path d="M109.136 28.0861C109.136 28.1744 109.067 28.2423 108.979 28.2423H100.84C100.752 28.2423 100.683 28.1744 100.683 28.0861V14.7867C100.683 14.6985 100.752 14.6306 100.84 14.6306H108.774C108.863 14.6306 108.931 14.6985 108.931 14.7867V16.0155C108.931 16.1038 108.863 16.1717 108.774 16.1717H102.471C102.382 16.1717 102.314 16.2395 102.314 16.3278V20.374C102.314 20.4622 102.382 20.5301 102.471 20.5301H108.283C108.372 20.5301 108.44 20.598 108.44 20.6863V21.8947C108.44 21.9829 108.372 22.0508 108.283 22.0508H102.471C102.382 22.0508 102.314 22.1187 102.314 22.207V26.5179C102.314 26.6061 102.382 26.674 102.471 26.674H108.979C109.067 26.674 109.136 26.7419 109.136 26.8302V28.0861Z" fill="#0C0066"/>
<path d="M121.091 14.7867V16.0359C121.091 16.1241 121.023 16.192 120.935 16.192H116.691C116.603 16.192 116.535 16.2599 116.535 16.3482V28.0861C116.535 28.1744 116.466 28.2423 116.378 28.2423H115.088C115 28.2423 114.931 28.1744 114.931 28.0861V16.3482C114.931 16.2599 114.863 16.192 114.775 16.192H110.545C110.456 16.192 110.388 16.1241 110.388 16.0359V14.7867C110.388 14.6985 110.456 14.6306 110.545 14.6306H120.948C121.037 14.6306 121.105 14.6985 121.105 14.7867H121.091Z" fill="#0C0066"/>
<path d="M133.656 14.7867V28.0861C133.656 28.1744 133.588 28.2423 133.499 28.2423H132.189C132.101 28.2423 132.033 28.1744 132.033 28.0861V22.2477C132.033 22.1594 131.964 22.0916 131.876 22.0916H124.938C124.849 22.0916 124.781 22.1594 124.781 22.2477V28.0861C124.781 28.1744 124.713 28.2423 124.624 28.2423H123.314C123.226 28.2423 123.158 28.1744 123.158 28.0861V14.7867C123.158 14.6985 123.226 14.6306 123.314 14.6306H124.624C124.713 14.6306 124.781 14.6985 124.781 14.7867V20.3604C124.781 20.4486 124.849 20.5165 124.938 20.5165H132.033V14.7867C132.033 14.6985 132.101 14.6306 132.189 14.6306H133.499C133.588 14.6306 133.656 14.6985 133.656 14.7867Z" fill="#0C0066"/>
<path d="M145.308 28.0861C145.308 28.1744 145.24 28.2423 145.151 28.2423H137.013C136.924 28.2423 136.856 28.1744 136.856 28.0861V14.7867C136.856 14.6985 136.924 14.6306 137.013 14.6306H144.947C145.035 14.6306 145.103 14.6985 145.103 14.7867V16.0155C145.103 16.1038 145.035 16.1717 144.947 16.1717H138.643C138.555 16.1717 138.486 16.2395 138.486 16.3278V20.374C138.486 20.4622 138.555 20.5301 138.643 20.5301H144.455C144.544 20.5301 144.612 20.598 144.612 20.6863V21.8947C144.612 21.9829 144.544 22.0508 144.455 22.0508H138.643C138.555 22.0508 138.486 22.1187 138.486 22.207V26.5179C138.486 26.6061 138.555 26.674 138.643 26.674H145.151C145.24 26.674 145.308 26.7419 145.308 26.8302V28.0861Z" fill="#0C0066"/>
<path d="M71.2053 43.1898C71.3076 43.1898 71.3895 43.2848 71.3622 43.3867C70.2229 47.7247 65.1135 49.5102 61.2455 47.5211C56.5795 45.1382 56.4839 37.6501 61.0545 35.1178C64.3494 33.2237 69.1246 34.3507 70.8028 37.8605C70.8301 37.9216 70.8164 37.9963 70.7687 38.0438L69.7864 39.0214C69.7045 39.1029 69.5681 39.0757 69.5271 38.9671C68.4288 35.9936 64.5745 35.0431 61.8936 36.5231C58.4759 38.3629 58.4827 44.1809 61.8936 46.0207C64.6837 47.555 68.7017 46.4756 69.6772 43.3052C69.6977 43.2373 69.7591 43.1898 69.8273 43.1898H71.2053Z" fill="#0C0066"/>
<path d="M94.3423 47.922C94.3423 48.0102 94.2741 48.0781 94.1854 48.0781H86.0471C85.9584 48.0781 85.8902 48.0102 85.8902 47.922V34.6226C85.8902 34.5343 85.9584 34.4664 86.0471 34.4664H93.9808C94.0694 34.4664 94.1377 34.5343 94.1377 34.6226V35.8513C94.1377 35.9396 94.0694 36.0075 93.9808 36.0075H87.6775C87.5888 36.0075 87.5206 36.0754 87.5206 36.1636V40.2098C87.5206 40.2981 87.5888 40.3659 87.6775 40.3659H93.4896C93.5783 40.3659 93.6465 40.4338 93.6465 40.5221V41.7305C93.6465 41.8188 93.5783 41.8867 93.4896 41.8867H87.6775C87.5888 41.8867 87.5206 41.9545 87.5206 42.0428V46.3537C87.5206 46.442 87.5888 46.5099 87.6775 46.5099H94.1854C94.2741 46.5099 94.3423 46.5778 94.3423 46.666V47.922Z" fill="#0C0066"/>
<path d="M115.456 34.6707L111.063 47.97C111.042 48.0379 110.981 48.0787 110.913 48.0787H109.726C109.657 48.0787 109.596 48.0379 109.576 47.9768L105.708 37.522C105.653 37.3862 105.462 37.3862 105.408 37.522L101.553 47.9768C101.533 48.0379 101.471 48.0787 101.403 48.0787H100.196C100.128 48.0787 100.066 48.0311 100.046 47.97L95.6729 34.6707C95.6388 34.5688 95.7138 34.4602 95.823 34.4602H97.201C97.2692 34.4602 97.3306 34.5077 97.3511 34.5688L99.3294 40.6109L100.707 44.8811C100.755 45.0237 100.96 45.0305 101.008 44.8811L102.59 40.5973L104.794 34.5552C104.814 34.4941 104.875 34.4534 104.944 34.4534H106.151C106.219 34.4534 106.281 34.4941 106.301 34.5552L110.108 44.9015C110.162 45.044 110.36 45.0372 110.408 44.9015L111.806 40.6109L113.764 34.5688C113.785 34.5009 113.846 34.4602 113.914 34.4602H115.292C115.401 34.4602 115.476 34.5688 115.442 34.6707H115.456Z" fill="#0C0066"/>
<path d="M80.4218 43.1631C80.3604 43.0749 80.4013 42.9459 80.5105 42.9187C81.3359 42.6811 82.0181 42.2534 82.5365 41.6356C83.1778 40.8821 83.4984 39.9316 83.4984 38.7979C83.4984 37.9357 83.3074 37.1685 82.9185 36.5168C82.5297 35.8651 81.984 35.3559 81.2881 34.9961C80.5991 34.6431 79.7805 34.4598 78.8664 34.4598H75.7216C75.6807 34.4598 75.6397 34.4734 75.6056 34.5005L73.7774 36.3131C73.7774 36.3131 73.7296 36.381 73.7296 36.4286L73.716 47.9153C73.716 48.0036 73.7842 48.0715 73.8729 48.0715H75.1827C75.2714 48.0715 75.3396 48.0036 75.3396 47.9153V43.2989C75.3396 43.2106 75.4146 43.1427 75.5033 43.1427H78.3139C78.3684 43.1427 78.4162 43.1699 78.4435 43.2106L81.8885 48.0172C81.9157 48.0579 81.9635 48.085 82.0181 48.085H83.5939C83.7235 48.085 83.7985 47.9425 83.7235 47.8339L80.4013 43.1631H80.4218ZM75.3669 41.4184V36.1842C75.3669 36.0959 75.4419 36.028 75.5306 36.028H78.7505C79.726 36.028 80.4968 36.2792 81.0426 36.7816C81.5883 37.2772 81.8475 37.9357 81.8475 38.8047C81.8475 39.6736 81.5815 40.3457 81.0357 40.8413C80.49 41.3369 79.726 41.5881 78.7436 41.5813H75.5238C75.4351 41.5813 75.3669 41.5066 75.3669 41.4184Z" fill="#0C0066"/>
<path d="M47.465 50H12.7287C11.2211 50 10 48.7848 10 47.2845V12.7155C10 11.2152 11.2211 10 12.7287 10H47.465C48.9726 10 50.1937 11.2152 50.1937 12.7155V47.2845C50.1937 48.7848 48.9726 50 47.465 50Z" fill="#804EE1"/>
<path d="M30.6097 28.466C28.9998 28.0383 27.3489 28.9888 26.9192 30.5842C26.0391 34.4674 31.5511 35.9338 32.7381 32.1388C33.1679 30.5366 32.2128 28.8937 30.6097 28.466Z" fill="white"/>
<path d="M30.9332 27.262C31.1924 27.3367 31.4789 27.1806 31.5471 26.909L32.7819 22.3129C32.8501 22.0685 33.0547 21.8852 33.3071 21.8377C34.2281 21.6612 34.9239 20.8465 34.9239 19.8757C34.8216 17.2281 31.015 17.2281 30.9059 19.8757C30.9059 20.4732 31.1719 21.0095 31.588 21.3761C31.7859 21.5458 31.8746 21.8106 31.8063 22.0618L30.5716 26.651C30.4966 26.9158 30.6603 27.1941 30.9263 27.262H30.9332Z" fill="white"/>
<path d="M26.8142 27.6575L23.9491 24.8062C23.7513 24.6093 23.6967 24.3106 23.8127 24.0594C24.9996 21.4864 21.732 18.961 19.4877 21.0791C18.3416 22.1857 18.4985 24.1001 19.706 25.0506C19.9174 25.2203 20.0061 25.4986 19.9311 25.7566L18.3348 31.6765C18.2666 31.9209 18.0619 32.111 17.8163 32.1585C16.5407 32.4165 15.6538 33.7539 16.0222 35.0506C16.7794 37.5896 20.279 37.1619 20.5996 34.7722C20.6337 34.5075 20.8315 34.2902 21.0908 34.2155L25.3475 33.0818C25.6136 33.0071 25.7773 32.7356 25.7023 32.4708C25.6272 32.206 25.3544 32.0431 25.0883 32.1178L21.0908 33.1836C20.6951 33.2922 20.279 33.1565 19.9993 32.8578C19.9925 32.8442 19.9788 32.8374 19.972 32.8238C19.706 32.5523 19.5968 32.1585 19.6991 31.7851L21.1181 26.517C21.2477 26.035 21.6229 25.6616 22.1072 25.5258C22.1209 25.5258 22.1345 25.519 22.1481 25.5122C22.653 25.3629 23.2055 25.4851 23.5807 25.8584L26.1048 28.3703C26.2003 28.4654 26.3299 28.5197 26.4595 28.5197C26.8961 28.5265 27.1348 27.9766 26.8142 27.6643V27.6575Z" fill="white"/>
<path d="M43.9494 27.5972C43.0217 24.4946 38.533 25.2822 38.6967 28.4797L34.3035 29.6542C34.0374 29.7289 33.8737 30.0004 33.9487 30.2652C34.017 30.5367 34.3035 30.6929 34.5627 30.6182L38.0077 29.7017C38.5193 29.5659 39.0582 29.7356 39.4198 30.1158C39.4334 30.1294 39.4403 30.1362 39.4539 30.1498C39.8018 30.5096 39.9451 31.0187 39.8154 31.5008L38.417 36.6874C38.3078 37.1016 37.9872 37.4206 37.5711 37.5496C37.5711 37.5496 37.5643 37.5496 37.5574 37.5496C37.1209 37.6854 36.6502 37.5632 36.3295 37.2373L33.4985 34.42C33.3348 34.257 33.0687 34.257 32.905 34.42C32.7413 34.5829 32.7413 34.8477 32.905 35.0106L36.35 38.439C34.7946 40.7947 37.8508 43.3677 39.9314 41.4125C40.9001 40.4756 40.8114 38.8735 39.8291 38.0181C39.6381 37.8483 39.5494 37.5904 39.6176 37.3392L41.2139 31.4193C41.2821 31.1613 41.5004 30.9576 41.7665 30.9169C43.2877 30.6929 44.386 29.1179 43.9494 27.5904V27.5972Z" fill="white"/>
</svg>
